#!OML:ASF F:\VICON\USERDATA\INSTALL\rory3\rory3.ASF
:FULLY-SPECIFIED
:DEGREES
87
root -0.031289139390042686 17.469985344013413 50.424224421831255 0.6507183554720968 1.3977991818811872 1.3178964764923213
lfemur 2.344909187919942 -3.488345863737967 -26.74510233528907
ltibia 26.232874539695423
lfoot -7.225818838297237 -5.557328706669494
ltoes -6.004431050989666
rfemur -37.08853763344745 -0.05485662078143738 20.59747348002414
rtibia 40.89154842299317
rfoot 1.8230458091145607 -13.62688105559125
rtoes -1.246002389654608
lowerback 12.785932168716537 -0.38837083912396747 -2.0977278930537486
upperback 0.08052261828143964 -0.7226393755976055 0.622249895928488
thorax -7.308239927853967 -0.2814794482348991 2.3084296412258336
lowerneck -16.739732661259097 -3.1067235195575305 -3.2078425781207907
upperneck 17.592192153665604 -3.74287537224771 3.4107376334901156
head 8.414634944227629 -1.71772840308252 1.3704600642891662
lclavicle -1.6771376108783243e-15 -3.5932664948459054e-15
lhumerus -31.650137856615245 -8.05222502476981 88.86463178271312
lradius 67.71575668482078
lwrist 20.113317288136784
lhand -30.629947091991063 13.110951204801756
lfingers 7.125019999999999
lthumb -4.385252054248895 42.14210616774039
rclavicle -1.676448184488468e-15 -3.592760432111168e-15
rhumerus -43.06825626887418 -7.8869288003798985 -86.7444120263862
rradius 60.02732430256998
rwrist -1.8757371628775439
rhand -17.926927023641635 29.44910812379775
rfingers 7.125019999999999
rthumb 8.06290094557156 -0.2834500460441499
88
root -0.10109573151238999 17.398056736347225 51.04607044051118 1.310966477096121 2.4028581133436573 1.593776763582058
lfemur 6.495714902098911 -3.5807179794480035 -26.96945816062965
ltibia 21.85037525738067
lfoot -5.779104369523294 -7.690874750399082
ltoes -9.206629274632544
rfemur -36.10982056478488 4.808166421240676 18.43236449463361
rtibia 26.1540181233122
rfoot 0.012504799760879592 -17.215703916330924
rtoes -3.8993250608385805
lowerback 11.799524716473718 -0.7696250899300761 -2.6400456817255273
upperback -0.09842670428472627 -1.324024945521159 0.6834050493948889
thorax -6.897407328515893 -0.5522041134445181 2.904266004894252
lowerneck -17.051601694126497 -3.095555348982833 -3.294127987280725
upperneck 17.418328313299412 -3.727988008301198 3.5160561819494873
head 8.429438418398455 -1.6956262116710286 1.3799910803652429
lclavicle -1.6760537926310116e-15 -3.592503211404827e-15
lhumerus -29.61156286432339 -8.715359869153303 88.60670226694222
lradius 70.26604842934317
lwrist 21.472605456992955
lhand -30.749624116694285 12.988132913360097
lfingers 7.125019999999999
lthumb -4.438734155934553 42.04664319910861
rclavicle -1.676143018875632e-15 -3.592544695570765e-15
rhumerus -43.69080978407235 -8.597485461821565 -85.86684663889089
rradius 58.945112367339064
rwrist -0.7455008438153867
rhand -18.013495842947126 29.93618479534199
rfingers 7.125019999999999
rthumb 8.00575004559561 0.15496597869906598
89
root -0.15900600801554177 17.352051879217885 51.67420923756569 1.5734325797867414 2.6768020744864653 1.465790940065649
lfemur 9.736935680754076 -4.225605754158651 -26.788302478756357
ltibia 20.708198839444524
lfoot -3.693387492885619 -10.393791803074295
ltoes -13.284691102792014
rfemur -35.45686122271852 6.9632014313766115 17.916584293452104
rtibia 21.605360773634246
rfoot -2.0914398732813537 -15.51423817293586
rtoes -8.92139079598678
lowerback 11.275278614830274 -0.9796509139562328 -2.876430453701437
upperback -0.2561803262256389 -1.665868062596745 0.8568494305147154
thorax -6.6623161658834125 -0.7068009699421416 3.2990464917787277
lowerneck -17.328956581419774 -3.0675957842317074 -3.353062476108178
upperneck 17.430353644512657 -3.6464181393985555 3.4597152827075366
head 8.473014289861888 -1.668751316578836 1.3484631961636495
lclavicle -1.674609681578662e-15 -3.591485100824415e-15
lhumerus -28.458552482264118 -9.111832889907719 88.49644941152752
lradius 72.81228378657596
lwrist 22.479239582407548
lhand -30.783091108302433 12.428991851901682
lfingers 7.125019999999999
lthumb -4.464560328169984 41.421423037715115
rclavicle -1.6746737295658348e-15 -3.591505681466367e-15
rhumerus -44.22974124844357 -9.580582402406549 -84.79082024531829
rradius 57.59397569559562
rwrist 0.8813999678417224
rhand -18.178393297513654 30.23519419466412
rfingers 7.125019999999999
rthumb 7.884230825758127 0.2380320513368152
90
root -0.2139422035023943 17.279758456646388 52.14589141450914 1.4548622372136821 3.2629299755451298 1.2584097556873122
lfemur 11.591616907083523 -5.535610787149396 -26.405619185603634
ltibia 24.002951297693734
lfoot -0.7651721626880625 -13.345227003531853
ltoes -16.60529220911488
rfemur -35.44455119443059 4.260836073028735 19.53982520916698
rtibia 27.217829029099068
rfoot 0.00459446872603797 -11.373986595935673
rtoes -9.880569956217652
lowerback 11.014149174891763 -1.2653654850867284 -2.7948290257676867
upperback -0.24053072495167058 -2.0188863560282426 1.1073588342432317
thorax -6.480236349434188 -0.8836051217667635 3.5479988333280303
lowerneck -17.59886975671709 -3.003292258000372 -3.388430402468858
upperneck 17.56850853897609 -3.516564861990147 3.2805840757728673
head 8.535044114396547 -1.6292116599514137 1.2954850711978636
lclavicle -1.6748848977464319e-15 -3.591679700389942e-15
lhumerus -28.28366530898574 -9.106538170393518 88.51072851222773
lradius 74.68618057778798
lwrist 23.278167208065618
lhand -30.964452550266056 11.95814129487267
lfingers 7.125019999999999
lthumb -4.715149942456582 40.993189189023155
rclavicle -1.6748997058374564e-15 -3.591665413202846e-15
rhumerus -44.700127106257334 -10.707307781643745 -83.48362046151493
rradius 55.98659620435731
rwrist 3.1366390451481836
rhand -18.334043283355808 30.269033871649704
rfingers 7.125019999999999
rthumb 7.703924244767296 0.19658326373759222
91
root -0.26631536545984946 17.219749790296735 52.60205623577659 1.0367479806973985 3.2066454199720464 0.5219366870418574
lfemur 11.24643422711694 -6.045510308886903 -25.185700356784825
ltibia 32.39370844967002
lfoot 4.505802118075085 -16.336096980368765
ltoes -19.947959977683517
rfemur -34.72403377202904 3.5815760552486107 21.7440195552798
rtibia 34.14368236520448
rfoot 2.7865907598237385 -8.318968149070397
rtoes -8.200141177334977
lowerback 10.956654186282096 -1.3972465477484233 -2.2419427638034337
upperback -0.15003733299124605 -2.1160040607226476 1.5591796472783468
thorax -6.353048647391549 -0.9427443608355519 3.5871405363357445
lowerneck -17.702334274394335 -2.879827563835672 -3.416204538126573
upperneck 17.859487482833245 -3.2807757678067686 2.953583967034639
head 8.617966833966644 -1.54954333458491 1.2199468066575918
lclavicle -1.6737007872820764e-15 -3.590842269326255e-15
lhumerus -29.076215641045145 -8.653828463876561 88.68881995769321
lradius 75.97311461080507
lwrist 24.198751573252224
lhand -31.369505213556113 11.304879134409719
lfingers 7.125019999999999
lthumb -5.111947653226261 40.55119494854928
rclavicle -1.6752837500236944e-15 -3.5919369312671965e-15
rhumerus -45.13368530736979 -11.964156344718951 -81.87882273588268
rradius 54.291201375823654
rwrist 4.843938037354482
rhand -18.394929061427014 30.26550600831673
rfingers 7.125019999999999
rthumb 7.654554449390468 0.13734035616391793
92
root -0.31570697257731983 17.16066523238709 53.16153891132636 0.46648790094496817 2.6397830675974845 -0.5118480842897293
lfemur 8.518889281931983 -5.055021964641217 -23.09935599954573
ltibia 44.91144457039692
lfoot 11.84711951780423 -20.25918820977155
ltoes -19.57038371013242
rfemur -32.780562519381604 3.437922429993294 24.424045463728245
rtibia 39.5298563898521
rfoot 2.7257979294930355 -5.433568419841518
rtoes 0.6669728633508498
lowerback 11.099923912291189 -1.3727973991685871 -1.382459112128947
upperback -0.12099153786975966 -1.932281889940538 2.0688772584946307
thorax -6.437828133846955 -0.8793077227899984 3.4559472327754914
lowerneck -17.496389039198068 -2.7578180832084036 -3.429303735203665
upperneck 18.262836274130475 -3.046530709794385 2.590441889052582
head 8.670823100138408 -1.4759881415127956 1.1478165864166632
lclavicle -1.6741484302992695e-15 -3.591159353194384e-15
lhumerus -30.9064699739343 -8.071168702104437 89.05874569033888
lradius 76.37841476149342
lwrist 24.60017489767712
lhand -31.647835332242916 11.12489776230503
lfingers 7.125019999999999
lthumb -5.276385969663735 40.67443560644169
rclavicle -1.6735871689110875e-15 -3.590737266161082e-15
rhumerus -45.72246996143841 -12.967039324823173 -80.43828207101113
rradius 53.41509750304668
rwrist 5.1081471614893115
rhand -18.426405531857352 30.286048476282406
rfingers 7.125019999999999
rthumb 7.651349452578917 0.29223480611858704
93
root -0.35805742173454974 17.129325819835746 53.48307084521805 -0.18866629554298664 2.0753548671642816 -1.4870858350823846
lfemur 3.706908048341546 -3.791095337580253 -20.57075714576929
ltibia 59.172973510319665
lfoot 19.87077721727926 -23.28361562283426
ltoes -11.328435617758053
rfemur -29.869850289557846 3.5997283399142144 26.966789693233945
rtibia 43.09970992956801
rfoot 0.6010348255160318 -4.254146801803288
rtoes 10.41906969719328
lowerback 11.5502150507088 -1.2804972921415854 -0.44946815786984873
upperback -0.10756237646587008 -1.6539751446105335 2.491098863641519
thorax -6.683260514105098 -0.7644642388578764 3.1804925868571985
lowerneck -17.19409200751592 -2.7276564397584893 -3.5016744169531826
upperneck 18.518890649535336 -2.9455184182661345 2.493361513407251
head 8.67260981773183 -1.438528848129055 1.160703658641415
lclavicle -1.6750317720017196e-15 -3.591782795866575e-15
lhumerus -33.02551749053212 -7.329518507980899 89.51148393066563
lradius 75.92521332584485
lwrist 24.36059939860707
lhand -31.915410586376584 10.68109417651125
lfingers 7.125019999999999
lthumb -5.576487574920844 40.199918855905075
rclavicle -1.6738104670086067e-15 -3.5908952725636616e-15
rhumerus -45.84911959199657 -13.141391204984558 -79.76852251584073
rradius 53.65703628914759
rwrist 4.540452319342613
rhand -18.471873584235865 30.22860281365449
rfingers 7.125019999999999
rthumb 7.708075144697298 0.20560572733385118
